<svg xmlns="http://www.w3.org/2000/svg" version="1.1" xmlns:xlink="http://www.w3.org/1999/xlink" xmlns:svgjs="http://svgjs.dev/svgjs" width="1440" height="560" preserveAspectRatio="none" viewBox="0 0 1440 560"><g mask="url(&quot;#SvgjsMask1024&quot;)" fill="none"><rect width="1440" height="560" x="0" y="0" fill="rgba(31, 51, 96, 1)"></rect><path d="M908.5187324186458 311.5670539219699L776.9152852640082 278.75462927562603 744.1028606176643 410.3580764302636 875.7063077723019 443.1705010766075z" fill="rgba(28, 83, 142, 0.4)" class="triangle-float2"></path><path d="M307.458,328.126C351.287,328.447,387.802,298.938,410.39,261.376C433.815,222.422,444.662,175.169,423.689,134.842C401.204,91.608,356.187,62.886,307.458,63.458C259.611,64.02,217.63,94.907,195.861,137.518C175.888,176.613,184.924,222.001,207.105,259.887C229.011,297.302,264.103,327.808,307.458,328.126" fill="rgba(28, 83, 142, 0.4)" class="triangle-float3"></path><path d="M975.4850068491381 249.81351897355628L939.3319620089884 131.56223759197815 821.0806806274103 167.71528243212788 857.23372546756 285.966563813706z" fill="rgba(28, 83, 142, 0.4)" class="triangle-float3"></path><path d="M1422.378917146933 197.9600637004492L1360.0910915260195 131.1645484891078 1293.295576314678 193.45237411002134 1355.5834019355916 260.2478893213628z" fill="rgba(28, 83, 142, 0.4)" class="triangle-float3"></path><path d="M162.049,286.937C191.127,287.29,221.149,275.324,234.253,249.364C246.478,225.145,234.094,197.285,218.511,175.078C205.521,156.567,184.65,147.248,162.049,146.47C137.709,145.632,112.181,150.846,98.428,170.945C82.911,193.621,79.601,223.558,92.815,247.649C106.492,272.584,133.611,286.592,162.049,286.937" fill="rgba(28, 83, 142, 0.4)" class="triangle-float1"></path><path d="M1282.4277658728872 451.0053332095157L1291.621446729311 556.0895862533338 1444.650985866826 489.75693844678926z" fill="rgba(28, 83, 142, 0.4)" class="triangle-float1"></path><path d="M714.3234217606656-41.96564433204863L635.7896824361643 83.71461040365986 761.4699371718727 162.24834972816123 840.003676496374 36.56809499245272z" fill="rgba(28, 83, 142, 0.4)" class="triangle-float1"></path><path d="M511.97 402.81 a104.05 104.05 0 1 0 208.1 0 a104.05 104.05 0 1 0 -208.1 0z" fill="rgba(28, 83, 142, 0.4)" class="triangle-float3"></path><path d="M1155.72 381.68 a160.56 160.56 0 1 0 321.12 0 a160.56 160.56 0 1 0 -321.12 0z" fill="rgba(28, 83, 142, 0.4)" class="triangle-float1"></path><path d="M1138.745,196.036C1184.356,194.726,1214.44,153.347,1235.816,113.034C1255.524,75.867,1264.818,32.753,1245.004,-4.358C1224.095,-43.521,1183.137,-69.328,1138.745,-68.78C1095.207,-68.243,1058.534,-39.596,1036.933,-1.791C1015.52,35.686,1011.758,80.523,1031.51,118.902C1053.106,160.864,1091.571,197.391,1138.745,196.036" fill="rgba(28, 83, 142, 0.4)" class="triangle-float1"></path><path d="M1059.1967277812448 441.85171236496575L989.8077836165838 513.7060674893935 1061.6621387410116 583.0950116540545 1131.0510829056725 511.2406565296268z" fill="rgba(28, 83, 142, 0.4)" class="triangle-float1"></path><path d="M561.0790428560446 418.79149406286274L647.7603080933254 438.8034409726689 581.0909897658507 332.1102288255819z" fill="rgba(28, 83, 142, 0.4)" class="triangle-float2"></path><path d="M545.2416303469917 432.24026118675886L561.2454700385285 341.4779761000699 417.10012256272665 362.85335910610917z" fill="rgba(28, 83, 142, 0.4)" class="triangle-float2"></path><path d="M1299.374,672.969C1346.048,672.063,1393.977,660.917,1419.662,621.935C1447.896,579.084,1452.167,523.511,1427.5,478.513C1401.916,431.842,1352.586,403.59,1299.374,402.506C1244.165,401.381,1189.353,425.203,1161.875,473.101C1134.511,520.799,1139.551,581.461,1170.718,626.766C1198.398,667.002,1250.545,673.917,1299.374,672.969" fill="rgba(28, 83, 142, 0.4)" class="triangle-float2"></path><path d="M168.82398276851842 110.51925771686132L213.4839097040772-5.823829572987009 52.48089547867009 65.85933078130253z" fill="rgba(28, 83, 142, 0.4)" class="triangle-float1"></path><path d="M919.0201165174847 398.1738700037474L1084.433293649656 383.70209220687684 1069.9615158527854 218.28891507470559 904.5483387206141 232.7606928715762z" fill="rgba(28, 83, 142, 0.4)" class="triangle-float1"></path><path d="M319.439,431.732C334.417,430.788,344.882,418.695,352.422,405.718C360.01,392.658,366.683,376.835,358.834,363.931C351.164,351.321,334.197,351.639,319.439,351.493C304.292,351.343,287.334,350.711,278.67,363.137C269.016,376.983,269.753,395.873,278.377,410.383C286.825,424.597,302.937,432.772,319.439,431.732" fill="rgba(28, 83, 142, 0.4)" class="triangle-float1"></path><path d="M377.125,592.584C412.024,593.892,443.058,571.388,460.102,540.905C476.733,511.162,476.044,475.233,459.351,445.525C442.297,415.174,411.939,393.353,377.125,393.233C342.121,393.113,309.909,413.82,293.914,444.956C279.107,473.779,288.357,506.834,304.268,535.063C320.552,563.954,343.984,591.342,377.125,592.584" fill="rgba(28, 83, 142, 0.4)" class="triangle-float2"></path></g><defs><mask id="SvgjsMask1024"><rect width="1440" height="560" fill="#ffffff"></rect></mask><style>
                @keyframes float1 {
                    0%{transform: translate(0, 0)}
                    50%{transform: translate(-10px, 0)}
                    100%{transform: translate(0, 0)}
                }

                .triangle-float1 {
                    animation: float1 5s infinite;
                }

                @keyframes float2 {
                    0%{transform: translate(0, 0)}
                    50%{transform: translate(-5px, -5px)}
                    100%{transform: translate(0, 0)}
                }

                .triangle-float2 {
                    animation: float2 4s infinite;
                }

                @keyframes float3 {
                    0%{transform: translate(0, 0)}
                    50%{transform: translate(0, -10px)}
                    100%{transform: translate(0, 0)}
                }

                .triangle-float3 {
                    animation: float3 6s infinite;
                }
            </style></defs></svg>